PathFileType	4	(X/Y/Z)	/Users/niels/Desktop/University/Third Semester/Perception and Action/Exam/Gymnastics Motion Tracking/Code for Gym Tracking/Analyzed Data/Webcam_Backflip/id3_2_trajectory_Sports2D/id3_2_trajectory_Sports2D_px_person00.trc
DataRate	CameraRate	NumFrames	NumMarkers	Units	OrigDataRate	OrigDataStartFrame	OrigNumFrames
29.8125	29.8125	12	22	m	29.8125	60	160
Frame#	Time	Hip			RHip			RKnee			RAnkle			RBigToe			RSmallToe			RHeel			LHip			LKnee			LAnkle			LBigToe			LSmallToe			LHeel			Neck			Head			Nose			RShoulder			RElbow			RWrist			LShoulder			LElbow			LWrist		
		X1	Y1	Z1	X2	Y2	Z2	X3	Y3	Z3	X4	Y4	Z4	X5	Y5	Z5	X6	Y6	Z6	X7	Y7	Z7	X8	Y8	Z8	X9	Y9	Z9	X10	Y10	Z10	X11	Y11	Z11	X12	Y12	Z12	X13	Y13	Z13	X14	Y14	Z14	X15	Y15	Z15	X16	Y16	Z16	X17	Y17	Z17	X18	Y18	Z18	X19	Y19	Z19	X20	Y20	Z20	X21	Y21	Z21	X22	Y22	Z22
60	2.012578616352201	1.01579933829856	-0.4412166943165733	0.0	1.0193510352144737	-0.440260528130472	0.0	1.1073791722599553	-0.49693525423364476	0.0	1.0575138776456598	-0.6088328995756093	0.0	1.0762828003661193	-0.6508226592600742	0.0	1.0706641820853944	-0.6512804245558624	0.0	1.0422045049128306	-0.6217749349846183	0.0	1.0100155970040041	-0.43971123884337193	0.0	1.096889831215183	-0.4950220805542976	0.0	1.0554637959315842	-0.6071095872420404	0.0	1.0775954271057688	-0.64861500264959	0.0	1.0681119486124735	-0.6462631303516626	0.0	1.0352766189650247	-0.6185224213581969	0.0	0.9306734326801256	-0.3324840411423818	0.0	0.856985236671764	-0.2895116635164872	0.0	0.9060637033020129	-0.28187439556684873	0.0	0.9372366094947744	-0.33237715465706225	0.0	0.9909509585462063	-0.29639922432428606	0.0	1.001795100225685	-0.2264096165324015	0.0	0.9362183294668522	-0.33325360500030127	0.0	0.9932738757925776	-0.30021658204006246	0.0	1.0085557854039222	-0.24268743757928757	0.0
61	2.0461215932914043	1.0162438465535217	-0.4155648131768919	0.0	1.0198090948182539	-0.4146953345431472	0.0	1.1152465972150927	-0.43297021325530227	0.0	1.0790094724309953	-0.5414465389735191	0.0	1.1037751583457713	-0.5756170502446603	0.0	1.099544071434087	-0.5779639766345686	0.0	1.065298884166821	-0.5551303137154106	0.0	1.0117693826630276	-0.4136545961541395	0.0	1.1054393587591715	-0.43121493242424214	0.0	1.07695079649714	-0.5386672331888547	0.0	1.1032609911281794	-0.5721519493307272	0.0	1.0958426160485883	-0.5716258210087891	0.0	1.0584728336097584	-0.5524665406794057	0.0	0.921491126617573	-0.31456114239912736	0.0	0.8456632919716934	-0.2792475943959852	0.0	0.8932999101360338	-0.2677946134721538	0.0	0.9290610084627208	-0.3134744100072506	0.0	0.9898328534406626	-0.2846001415739378	0.0	1.0041683719041814	-0.2144878148239319	0.0	0.9299717441536037	-0.31671719301510615	0.0	0.9938659952746293	-0.29160250512163277	0.0	1.0159041671012523	-0.23674945050307664	0.0
62	2.079664570230608	1.0189087083530943	-0.39531479371410383	0.0	1.0226674640996394	-0.3943183972225049	0.0	1.1112320195373122	-0.3708310558619947	0.0	1.0980990540371633	-0.4732970794934503	0.0	1.129146379163723	-0.49344094842363756	0.0	1.1269166148777952	-0.49852452448462153	0.0	1.0881600985497275	-0.4883583939630233	0.0	1.015692480378365	-0.393038722107782	0.0	1.102079587078494	-0.37031550102948707	0.0	1.0956882347467187	-0.4689851435370474	0.0	1.125797584760799	-0.4890831822250918	0.0	1.1206489945292861	-0.490792780645329	0.0	1.082127420747723	-0.4859375606883518	0.0	0.915586406806393	-0.3039624972670605	0.0	0.8395259072042361	-0.2760139562763105	0.0	0.8849499295337665	-0.26139242520377987	0.0	0.924533600244378	-0.30053606692636015	0.0	0.9924855846860213	-0.2761285489589624	0.0	1.011981092907535	-0.20665719711189542	0.0	0.9263357337330341	-0.30748928723606656	0.0	0.9959190643939843	-0.2860271943959473	0.0	1.0240387984858272	-0.23274838873932688	0.0
63	2.113207547169811	1.0246599408027197	-0.3782600421939615	0.0	1.028573110953698	-0.3767246275185785	0.0	1.095197675427676	-0.31602311232172164	0.0	1.1113474337919973	-0.4073692852921966	0.0	1.1456687153235992	-0.40965067797026655	0.0	1.1461803635004661	-0.41722957274598194	0.0	1.1069722646914208	-0.4235339688342354	0.0	1.0223486265383903	-0.37605617425500165	0.0	1.0869318078549974	-0.317696350797048	0.0	1.1083799414199673	-0.40182961314752813	0.0	1.1397037884653438	-0.40529634325421504	0.0	1.1364650549756643	-0.40879978144752444	0.0	1.102628025065128	-0.42137722840613445	0.0	0.9136240629683282	-0.3005976871591115	0.0	0.8392221552715928	-0.2803801909342058	0.0	0.8815890119011736	-0.2627804591535654	0.0	0.9238909419960006	-0.29348989774156614	0.0	0.9971410620364982	-0.27012498076585506	0.0	1.020921032029764	-0.2026361734454464	0.0	0.9257453732679001	-0.30514869965560343	0.0	0.9978471521310334	-0.28198659757540434	0.0	1.0292862617034602	-0.22920761802246456	0.0
64	2.1467505241090143	1.0331273719070873	-0.3622425221941376	0.0	1.0367863402407949	-0.3596492568256449	0.0	1.0701700714865405	-0.27389972124538176	0.0	1.1156446837188005	-0.3469734857838996	0.0	1.1477455365391587	-0.3315302677683539	0.0	1.1515973548023162	-0.34022160381005284	0.0	1.1173580487701862	-0.3628140723567569	0.0	1.0312081385783842	-0.36073555523375117	0.0	1.0634003807191035	-0.2781590283621417	0.0	1.1122609782884239	-0.34138636453714943	0.0	1.140674890745335	-0.32854509831583495	0.0	1.138499604845137	-0.3326686717784866	0.0	1.1157071885396392	-0.3613142643106494	0.0	0.9162247862875252	-0.3036638256166202	0.0	0.8456982343258252	-0.2922332310110558	0.0	0.8838656899152287	-0.2717496189055686	0.0	0.9271758232694673	-0.2921502718235627	0.0	1.0020350307092145	-0.26643439117493045	0.0	1.026806673501267	-0.20276262963423486	0.0	0.9291289781763711	-0.30857395286767375	0.0	0.999051962911331	-0.27928243664086405	0.0	1.0302846500840808	-0.2268665819899634	0.0
65	2.180293501048218	1.0426393100511204	-0.3455806596253111	0.0	1.0453740785947156	-0.34162416587431177	0.0	1.0410858446333515	-0.24764469923849072	0.0	1.1090415744846112	-0.29567057402050007	0.0	1.1329659683818023	-0.2668533014325585	0.0	1.140224878807511	-0.27473310721941285	0.0	1.1158930419101516	-0.30909251812470917	0.0	1.0406590284158497	-0.34528199329460474	0.0	1.0366096048876026	-0.25427115949321605	0.0	1.1057772443635725	-0.29177628257220845	0.0	1.1267772525371578	-0.26670965710571115	0.0	1.1247713288011263	-0.2701817700391311	0.0	1.1178284102403973	-0.308792375245969	0.0	0.9242113465218528	-0.31179350560347463	0.0	0.8603723846005132	-0.31065153464052314	0.0	0.8927362012211608	-0.28770732704774615	0.0	0.934675392223105	-0.2960145816008701	0.0	1.005800490589378	-0.2647876492528171	0.0	1.0268680340265157	-0.20719582303913936	0.0	0.937755423965324	-0.3162521719136442	0.0	1.0000538793597755	-0.27835543089310444	0.0	1.0282148132616016	-0.22772182483354822	0.0
66	2.213836477987421	1.0508690479282667	-0.32728319538536343	0.0	1.0520147311996497	-0.3221459255508497	0.0	1.0128573462268793	-0.23715829915752745	0.0	1.0914474325909893	-0.2564159295286098	0.0	1.102765269663631	-0.2215960941629175	0.0	1.1127439708760352	-0.2269986812432571	0.0	1.1014802800551398	-0.26543212046671316	0.0	1.0486338228855379	-0.32845627701376595	0.0	1.0115037890801646	-0.24556028512571856	0.0	1.0890821747318509	-0.25584422206437013	0.0	1.0990352109856993	-0.2251339763848572	0.0	1.0967058632607887	-0.22719771810640815	0.0	1.1075086497705013	-0.2666606122263905	0.0	0.938352902065026	-0.32321240467536205	0.0	0.8845513676569441	-0.3339936140265896	0.0	0.9089680036303562	-0.3094198054580356	0.0	0.9468048730124317	-0.3039810968938202	0.0	1.0076183845488373	-0.2646198850155361	0.0	1.020269373196901	-0.21560354715906138	0.0	0.9525891546543909	-0.3263875478673798	0.0	1.0018662486286691	-0.27930592047061553	0.0	1.025577436137868	-0.23339864086518305	0.0
67	2.2473794549266244	1.055986636448493	-0.30730687715766447	0.0	1.0550971759646557	-0.3016463447156972	0.0	0.9888543005619472	-0.2396845539437427	0.0	1.0646534357983912	-0.23038760729007646	0.0	1.061459093709496	-0.19793862157066683	0.0	1.072818582630749	-0.1998983274935155	0.0	1.0756006563416034	-0.23360504758268527	0.0	1.053633703362123	-0.31001003539679123	0.0	0.9914545407542308	-0.2491095450990885	0.0	1.0639593729945465	-0.23403706258825904	0.0	1.0609193889715676	-0.2048850870914753	0.0	1.0583127556880743	-0.20544501038651677	0.0	1.0857378402123716	-0.23625285188008108	0.0	0.9587640344308366	-0.33605679029892227	0.0	0.9183877370690613	-0.3600011419372776	0.0	0.9324963954010884	-0.3348703673604557	0.0	0.9635720484049085	-0.31444175711532996	0.0	1.0073536730101273	-0.26543752518650315	0.0	1.00795844084713	-0.22729112023356046	0.0	0.9736298012895942	-0.337196272899772	0.0	1.0053061945174064	-0.2816564162469685	0.0	1.0245513322260986	-0.24427001341833354	0.0
68	2.280922431865828	1.0573635265919408	-0.28667418555105445	0.0	1.0542970108330576	-0.281380481103067	0.0	0.9704725762781955	-0.25145957317551887	0.0	1.0316553237639796	-0.21693751135997233	0.0	1.0145694780553383	-0.19427235589033584	0.0	1.025674100163867	-0.19247809920790132	0.0	1.041457366229251	-0.21369466976408152	0.0	1.0552913263943502	-0.29076513961339084	0.0	0.9777436580993183	-0.2610620444818513	0.0	1.0331869508383165	-0.22476884870455807	0.0	1.017093840994573	-0.20347155413073684	0.0	1.014640777548738	-0.20279874702447212	0.0	1.0552704124334424	-0.21732136722161488	0.0	0.9845457237698318	-0.34861767247511083	0.0	0.9603538655959948	-0.3859578502408377	0.0	0.9623042544883698	-0.36141277744813594	0.0	0.9842449523426088	-0.32564259995071176	0.0	1.0056130150140359	-0.2672152364539546	0.0	0.9922648041169786	-0.24151864280218577	0.0	0.9996658052126378	-0.3471922650742326	0.0	1.0107724481369817	-0.284846982526889	0.0	1.0259388954788227	-0.2595898173387757	0.0
69	2.314465408805031	1.0553095675686235	-0.26738845626337965	0.0	1.0502359011914097	-0.26333377077335773	0.0	0.9578389843162034	-0.269247537917051	0.0	0.9958518927124839	-0.21513178941885389	0.0	0.9676667488356424	-0.20756047291557148	0.0	0.9769314492580978	-0.20211601678984817	0.0	1.002849760110248	-0.20552598799515862	0.0	1.0540540682177335	-0.27244662395737745	0.0	0.9701144981847243	-0.27810166707140244	0.0	0.9998256749406077	-0.22626403641120854	0.0	0.9724338517660805	-0.21750478204988052	0.0	0.97072024760656	-0.21583548385327292	0.0	1.0194702798814381	-0.2096107441197618	0.0	1.0140466537658845	-0.35931868966656416	0.0	1.0077597496326591	-0.40878107541492625	0.0	0.9968850989086666	-0.3859914106105064	0.0	1.0075845370386263	-0.3359465423171863	0.0	1.0035886761929715	-0.2705901862015429	0.0	0.9764668889121972	-0.25794087411141337	0.0	1.028620402382358	-0.35512064244743985	0.0	1.0183814141314014	-0.28872337475966225	0.0	1.029201177410211	-0.2781616851500715	0.0
70	2.3480083857442344	1.0504419832368885	-0.25221619874892137	0.0	1.0438214867175486	-0.25008738374758793	0.0	0.9508197916372442	-0.2910902826229661	0.0	0.960645787673256	-0.22533029011566832	0.0	0.9260211665168289	-0.23575539205150597	0.0	0.9321024146180753	-0.22706178685456319	0.0	0.963551002732589	-0.2102535008046384	0.0	1.050544000516464	-0.25752791928130625	0.0	0.9677101902650753	-0.2982268229875782	0.0	0.9668697027094378	-0.23819895818438805	0.0	0.9317341176752852	-0.2449508146933706	0.0	0.9313085941480397	-0.24225575607761687	0.0	0.981640346307437	-0.21434205264216932	0.0	1.045328034050967	-0.3666459146849429	0.0	1.0575547236799447	-0.4251075264111253	0.0	1.0346676233473444	-0.40534147098479695	0.0	1.0322621996267598	-0.3439525760998329	0.0	1.002812619987589	-0.2768280652023236	0.0	0.9643842365003865	-0.2769909430079488	0.0	1.0580901667314417	-0.35979489681410975	0.0	1.0280505094775996	-0.29375102089067384	0.0	1.0331831667346012	-0.29905499310531375	0.0
71	2.381551362683438	1.0434059210348443	-0.24414676710902591	0.0	1.0359206967987773	-0.24427759579827252	0.0	0.9493534483875539	-0.31608015817626983	0.0	0.9294196544135462	-0.24911675656033253	0.0	0.8943264304683853	-0.2779521614015126	0.0	0.8962952400988782	-0.266791325721915	0.0	0.9272983944077036	-0.2302638081497782	0.0	1.0452145144361866	-0.24888060272623147	0.0	0.9693795523291882	-0.3206675610271351	0.0	0.9372434025481906	-0.26173896375661265	0.0	0.899578763345773	-0.2851606021866217	0.0	0.9007545802758865	-0.2811532459467369	0.0	0.9451095638907452	-0.23399116297086137	0.0	1.0762781436468378	-0.36938088951644993	0.0	1.1065918629151295	-0.4319025760225002	0.0	1.0738462368673845	-0.41654870805052835	0.0	1.0570132586180205	-0.3487280348378507	0.0	1.0048703089677566	-0.28745994232629873	0.0	0.9598223928927349	-0.2999184967156071	0.0	1.085651390716838	-0.36025019342593734	0.0	1.0392738849436802	-0.30102228092620004	0.0	1.0368478062810274	-0.32195206792216957	0.0
